<mxfile host="app.diagrams.net" modified="2023-05-05T23:45:22.400Z" agent="Mozilla/5.0 (Windows NT 10.0; Win64; x64) AppleWebKit/537.36 (KHTML, like Gecko) Chrome/113.0.0.0 Safari/537.36" version="21.2.9" etag="hJw7A1lAoC53NVTvUoKs" type="github">
  <diagram name="PÃ¡gina-1" id="gjX2WW1Q7Hzzxh7CgLJR">
    <mxGraphModel>
      <root>
        <mxCell id="0" />
        <mxCell id="1" parent="0" />
      </root>
    </mxGraphModel>
  </diagram>
</mxfile>
